<svg enable-background="new 0 0 128 128" viewBox="0 0 128 128" xmlns="http://www.w3.org/2000/svg" xmlns:xlink="http://www.w3.org/1999/xlink"><linearGradient id="a"><stop offset="0" stop-color="#fff"/><stop offset=".3864" stop-color="#fdfdfd"/><stop offset=".588" stop-color="#f5f5f5"/><stop offset=".7468" stop-color="#e7e7e7"/><stop offset=".8825" stop-color="#d5d5d5"/><stop offset="1" stop-color="#bdbdbd"/></linearGradient><linearGradient id="b" gradientUnits="userSpaceOnUse" x1="65.332" x2="65.332" xlink:href="#a" y1="10.969" y2="124.38"/><linearGradient id="c"><stop offset=".0135" stop-color="#e0e0e0"/><stop offset=".0937" stop-color="#eaeaea"/><stop offset=".2495" stop-color="#f6f6f6"/><stop offset=".4634" stop-color="#fdfdfd"/><stop offset="1" stop-color="#fff"/></linearGradient><linearGradient id="d" gradientUnits="userSpaceOnUse" x1="84.916" x2="119.97" xlink:href="#c" y1="99.397" y2="99.397"/><linearGradient id="e" gradientUnits="userSpaceOnUse" x1="84.916" x2="119.97" xlink:href="#c" y1="41.803" y2="41.803"/><linearGradient id="f" gradientUnits="userSpaceOnUse" x1="52.444" x2="52.444" xlink:href="#a" y1="4.1699" y2="114.61"/><linearGradient id="g" gradientUnits="userSpaceOnUse" x1="78.71" x2="113.77" xlink:href="#c" y1="19.988" y2="19.988"/><linearGradient id="h" gradientUnits="userSpaceOnUse" x1="78.71" x2="113.77" xlink:href="#c" y1="72.882" y2="72.882"/><path d="m102.24 123.88h-73.82c-2.21 0-4-1.79-4-4v-105.09c0-2.21 1.79-4 4-4h73.82c2.21 0 4 1.79 4 4v105.09c0 2.21-1.79 4-4 4z" fill="url(#b)"/><path d="m102.24 13.64c.64 0 1.15.52 1.15 1.15v105.09c0 .64-.52 1.15-1.15 1.15h-73.82c-.64 0-1.15-.52-1.15-1.15v-105.09c0-.64.52-1.15 1.15-1.15zm0-2.85h-73.82c-2.21 0-4 1.79-4 4v105.09c0 2.21 1.79 4 4 4h73.82c2.21 0 4-1.79 4-4v-105.09c0-2.2-1.79-4-4-4z" fill="#424242" opacity=".2"/><path d="m84.92 93.26h35.06v12.27h-35.06z" fill="url(#d)"/><path d="m103.51 93.26h16.47v12.27h-16.47z" fill="#4480f7"/><path d="m117.78 95.45v7.89h-30.67v-7.89zm2.19-2.19h-35.05v12.27h35.06v-12.27z" fill="#757575" opacity=".2"/><path d="m84.92 35.67h35.06v12.27h-35.06z" fill="url(#e)"/><path d="m103.51 35.67h16.47v12.27h-16.47z" fill="#fbbe00"/><path d="m117.78 37.86v7.89h-30.67v-7.89zm2.19-2.19h-35.05v12.27h35.06v-12.27z" fill="#757575" opacity=".2"/><path d="m91.35 114.13h-77.81c-2.21 0-4-1.79-4-4v-102.13c0-2.21 1.79-4 4-4h77.81c2.21 0 4 1.79 4 4v102.13c0 2.21-1.79 4-4 4z" fill="url(#f)"/><path d="m91.35 6.88c.62 0 1.12.5 1.12 1.12v102.13c0 .62-.5 1.12-1.12 1.12h-77.81c-.62 0-1.12-.5-1.12-1.12v-102.13c0-.62.5-1.12 1.12-1.12zm0-2.88h-77.81c-2.21 0-4 1.79-4 4v102.13c0 2.21 1.79 4 4 4h77.81c2.21 0 4-1.79 4-4v-102.13c0-2.21-1.79-4-4-4z" fill="#424242" opacity=".2"/><g style="fill:none;stroke:#757575;stroke-linecap:round;stroke-linejoin:round;stroke-miterlimit:10;stroke-width:3.7969"><path d="m21.6 30.48h61.69"/><path d="m21.6 44.25h61.69"/><path d="m21.6 58.03h61.69"/><path d="m21.6 71.81h61.69"/><path d="m21.6 85.58h26.38"/></g><path d="m78.71 13.85h35.06v12.27h-35.06z" fill="url(#g)"/><path d="m97.3 13.85h16.47v12.27h-16.47z" fill="#ec4431"/><path d="m111.58 16.04v7.89h-30.68v-7.89zm2.19-2.19h-35.06v12.27h35.06z" fill="#757575" opacity=".2"/><path d="m78.71 66.75h35.06v12.27h-35.06z" fill="url(#h)"/><path d="m97.3 66.75h16.47v12.27h-16.47z" fill="#2ca94f"/><path d="m111.58 68.94v7.89h-30.68v-7.89zm2.19-2.19h-35.06v12.27h35.06z" fill="#757575" opacity=".2"/></svg>